<svg width="87" height="32" viewBox="0 0 87 32" fill="none" xmlns="http://www.w3.org/2000/svg">
<path d="M26.0723 5.67578C25.498 5.65234 24.918 5.62305 24.332 5.58789C23.7461 5.55273 23.1191 5.51758 22.4512 5.48242C21.7832 5.44727 21.0449 5.41797 20.2363 5.39453C19.4395 5.37109 18.5371 5.35938 17.5293 5.35938C16.2402 5.35938 14.9922 5.39453 13.7852 5.46484C12.5781 5.52344 11.3828 5.64062 10.1992 5.81641C9.01562 5.99219 7.83203 6.23828 6.64844 6.55469C5.46484 6.87109 4.25195 7.28711 3.00977 7.80273C3.51367 9.20898 3.91797 10.5859 4.22266 11.9336C4.52734 13.2812 4.76172 14.5645 4.92578 15.7832C5.10156 17.002 5.21875 18.1445 5.27734 19.2109C5.33594 20.2773 5.36523 21.2383 5.36523 22.0938C5.36523 22.9023 5.34766 23.6172 5.3125 24.2383C5.27734 24.8477 5.23633 25.3574 5.18945 25.7676C5.14258 26.2598 5.08398 26.6816 5.01367 27.0332C5.57617 25.6973 6.12109 24.2852 6.64844 22.7969C7.1875 21.2969 7.69727 19.8145 8.17773 18.3496C8.6582 16.873 9.10352 15.4492 9.51367 14.0781C9.92383 12.707 10.2812 11.4766 10.5859 10.3867C10.9023 9.29688 11.1602 8.38867 11.3594 7.66211C11.5586 6.92383 11.6875 6.45508 11.7461 6.25586C12.0039 6.4668 12.3145 6.73633 12.6777 7.06445C13.0527 7.39258 13.4277 7.73242 13.8027 8.08398C14.1777 8.43555 14.5234 8.77539 14.8398 9.10352C15.168 9.41992 15.4199 9.68359 15.5957 9.89453C15.3027 10.9844 14.916 12.1855 14.4355 13.498C13.9551 14.8105 13.4219 16.1641 12.8359 17.5586C12.2617 18.9531 11.6582 20.3535 11.0254 21.7598C10.3926 23.1543 9.77734 24.4785 9.17969 25.7324C8.58203 26.9863 8.02539 28.1289 7.50977 29.1602C7.00586 30.1914 6.58984 31.041 6.26172 31.709C6.08594 31.5332 5.86914 31.293 5.61133 30.9883C5.35352 30.6836 5.08984 30.373 4.82031 30.0566C4.55078 29.752 4.29883 29.4648 4.06445 29.1953C3.8418 28.9258 3.67773 28.7324 3.57227 28.6152C3.5957 28.4746 3.63672 28.2344 3.69531 27.8945C3.76562 27.543 3.83008 27.1094 3.88867 26.5938C3.95898 26.0664 4.01758 25.457 4.06445 24.7656C4.11133 24.0742 4.13477 23.3066 4.13477 22.4629C4.13477 21.502 4.09375 20.4707 4.01172 19.3691C3.92969 18.2559 3.76562 17.1016 3.51953 15.9062C3.28516 14.7109 2.94531 13.4805 2.5 12.2148C2.05469 10.9492 1.47461 9.67187 0.759766 8.38281C0.748047 8.38281 0.742188 8.37695 0.742188 8.36523C0.730469 8.35352 0.724609 8.32422 0.724609 8.27734C0.724609 8.16016 0.765625 8.00195 0.847656 7.80273C0.929688 7.5918 1.03516 7.36914 1.16406 7.13477C1.30469 6.88867 1.45117 6.64844 1.60352 6.41406C1.76758 6.16797 1.91992 5.95703 2.06055 5.78125C2.11914 5.71094 2.40039 5.54688 2.9043 5.28906C3.4082 5.01953 4.09961 4.70313 4.97852 4.33984C5.86914 3.97656 6.92383 3.58984 8.14258 3.17969C9.37305 2.76953 10.7324 2.39453 12.2207 2.05469C13.709 1.70312 15.3086 1.41602 17.0195 1.19336C18.7422 0.970703 20.5352 0.859375 22.3984 0.859375C22.4805 0.953125 22.6094 1.11133 22.7852 1.33398C22.9727 1.54492 23.1836 1.79687 23.418 2.08984C23.6523 2.37109 23.8984 2.68164 24.1562 3.02148C24.4258 3.34961 24.6836 3.67773 24.9297 4.00586C25.1758 4.32227 25.3984 4.62695 25.5977 4.91992C25.7969 5.21289 25.9551 5.46484 26.0723 5.67578ZM26.5996 26.5234C26.7754 26.5234 27.0098 26.4473 27.3027 26.2949C27.5957 26.1426 27.918 25.9492 28.2695 25.7148C28.6328 25.4805 29.002 25.2227 29.377 24.9414C29.752 24.6484 30.1094 24.3672 30.4492 24.0977C30.8008 23.8164 31.1113 23.5645 31.3809 23.3418C31.6504 23.1074 31.8555 22.9316 31.9961 22.8145C32.1016 22.9199 32.2246 23.0547 32.3652 23.2188C32.5176 23.3828 32.6582 23.5352 32.7871 23.6758C32.5293 23.9336 32.207 24.2441 31.8203 24.6074C31.4336 24.959 31.0176 25.3223 30.5723 25.6973C30.127 26.0723 29.6641 26.4414 29.1836 26.8047C28.7031 27.168 28.2344 27.4961 27.7773 27.7891C27.3203 28.082 26.8926 28.3164 26.4941 28.4922C26.0957 28.668 25.7617 28.7559 25.4922 28.7559C25.2695 28.7559 25.0059 28.6973 24.7012 28.5801C24.4082 28.4746 24.1211 28.334 23.8398 28.1582C23.5703 27.9941 23.3359 27.8125 23.1367 27.6133C22.9492 27.4023 22.8555 27.1973 22.8555 26.998C22.8672 26.4941 22.9609 25.9082 23.1367 25.2402C23.3125 24.5723 23.5176 23.8867 23.752 23.1836C23.998 22.4805 24.2559 21.7891 24.5254 21.1094C24.8066 20.418 25.0645 19.8027 25.2988 19.2637C25.2051 19.2871 25.0234 19.416 24.7539 19.6504C24.4844 19.8848 24.1562 20.207 23.7695 20.6172C23.3945 21.0156 22.9785 21.502 22.5215 22.0762C22.0762 22.6387 21.6309 23.2715 21.1855 23.9746C20.752 24.6777 20.3359 25.4395 19.9375 26.2598C19.5391 27.0684 19.2051 27.9238 18.9355 28.8262C18.9004 28.9551 18.8477 29.0488 18.7773 29.1074C18.7188 29.166 18.6133 29.1953 18.4609 29.1953C18.3555 29.1953 18.1914 29.1426 17.9688 29.0371C17.7461 28.9316 17.5117 28.8027 17.2656 28.6504C17.0195 28.5098 16.7793 28.3574 16.5449 28.1934C16.3105 28.0293 16.123 27.8828 15.9824 27.7539C15.9121 27.6719 15.8535 27.5957 15.8066 27.5254C15.7598 27.4551 15.7363 27.3496 15.7363 27.209C15.7363 26.4355 15.8652 25.4863 16.123 24.3613C16.3809 23.2363 16.7383 22.0176 17.1953 20.7051C17.6406 19.3809 18.1621 18.0039 18.7598 16.5742C19.3691 15.1328 20.0137 13.7207 20.6934 12.3379C21.3848 10.9551 22.0996 9.64258 22.8379 8.40039C23.5879 7.14648 24.3203 6.04492 25.0352 5.0957C25.7617 4.13477 26.4531 3.36719 27.1094 2.79297C27.7773 2.20703 28.3867 1.89648 28.9375 1.86133C29.207 1.94336 29.4766 2.07227 29.7461 2.24805C30.0273 2.42383 30.291 2.61719 30.5371 2.82812C30.7832 3.03906 31 3.24414 31.1875 3.44336C31.3867 3.64258 31.5391 3.8125 31.6445 3.95312C31.7148 4.04687 31.7617 4.1582 31.7852 4.28711C31.8086 4.41602 31.8203 4.50977 31.8203 4.56836C31.8203 4.99023 31.7031 5.51172 31.4688 6.13281C31.2344 6.75391 30.9062 7.45117 30.4844 8.22461C30.0625 8.99805 29.5469 9.83008 28.9375 10.7207C28.3398 11.5996 27.6719 12.5078 26.9336 13.4453C26.207 14.3711 25.416 15.3086 24.5605 16.2578C23.7168 17.207 22.832 18.127 21.9062 19.0176C21.6719 19.6504 21.4609 20.2656 21.2734 20.8633C21.9062 20.207 22.4863 19.6562 23.0137 19.2109C23.541 18.7656 24.0098 18.4141 24.4199 18.1562C24.8301 17.8867 25.1758 17.6992 25.457 17.5938C25.75 17.4766 25.9727 17.418 26.125 17.418C26.2305 17.418 26.418 17.4883 26.6875 17.6289C26.957 17.7578 27.2383 17.916 27.5312 18.1035C27.8242 18.291 28.0938 18.4844 28.3398 18.6836C28.5859 18.8828 28.7383 19.0469 28.7969 19.1758C28.8203 19.2344 28.8203 19.3164 28.7969 19.4219C28.7734 19.5156 28.75 19.5918 28.7266 19.6504C28.6211 19.9668 28.4922 20.3359 28.3398 20.7578C28.1992 21.168 28.041 21.6074 27.8652 22.0762C27.7012 22.5332 27.5371 22.9961 27.373 23.4648C27.209 23.9336 27.0625 24.3672 26.9336 24.7656C26.8047 25.1523 26.6992 25.498 26.6172 25.8027C26.5352 26.0957 26.4941 26.3008 26.4941 26.418C26.4941 26.4883 26.5293 26.5234 26.5996 26.5234ZM25.0527 11.4062C24.7715 12.0039 24.4961 12.6016 24.2266 13.1992C23.9688 13.7852 23.7168 14.377 23.4707 14.9746C24.2559 13.9668 25.0176 12.9473 25.7559 11.916C26.4941 10.873 27.1504 9.87695 27.7246 8.92773C28.3105 7.9668 28.7793 7.08203 29.1309 6.27344C29.4824 5.46484 29.6582 4.78516 29.6582 4.23438C29.6582 3.97656 29.6113 3.84766 29.5176 3.84766C29.377 3.84766 29.1602 4.04102 28.8672 4.42773C28.5859 4.80273 28.2461 5.32422 27.8477 5.99219C27.4492 6.66016 27.0098 7.45703 26.5293 8.38281C26.0605 9.30859 25.5684 10.3164 25.0527 11.4062ZM33.0684 28.9668C32.8926 28.9668 32.6699 28.9023 32.4004 28.7734C32.1309 28.6562 31.873 28.5039 31.627 28.3164C31.3809 28.1406 31.1699 27.9414 30.9941 27.7188C30.8184 27.4961 30.7305 27.2793 30.7305 27.0684C30.8477 26.5527 31.0059 25.9609 31.2051 25.293C31.4043 24.625 31.6211 23.9453 31.8555 23.2539C32.0781 22.5625 32.3184 21.8887 32.5762 21.2324C32.8223 20.5645 33.0449 19.9727 33.2441 19.457C33.4551 18.9414 33.6367 18.5254 33.7891 18.209C33.9414 17.8926 34.041 17.7344 34.0879 17.7344C34.1582 17.7344 34.334 17.8105 34.6152 17.9629C34.8965 18.1152 35.1895 18.3027 35.4941 18.5254C35.8105 18.7363 36.0918 18.9648 36.3379 19.2109C36.584 19.4453 36.707 19.6504 36.707 19.8262C36.707 19.8613 36.7012 19.9082 36.6895 19.9668C36.6777 20.0137 36.6602 20.0781 36.6367 20.1602C36.543 20.4531 36.4199 20.7988 36.2676 21.1973C36.127 21.5957 35.9746 22.0117 35.8105 22.4453C35.6465 22.8672 35.4824 23.2949 35.3184 23.7285C35.1543 24.1504 35.0078 24.5488 34.8789 24.9238C34.75 25.2988 34.6445 25.627 34.5625 25.9082C34.4805 26.1895 34.4395 26.3945 34.4395 26.5234C34.4395 26.5938 34.4746 26.6289 34.5449 26.6289C34.6738 26.6289 34.8672 26.5527 35.125 26.4004C35.3828 26.248 35.6758 26.0488 36.0039 25.8027C36.3438 25.5566 36.6953 25.2871 37.0586 24.9941C37.4219 24.7012 37.7676 24.4141 38.0957 24.1328C38.4355 23.8398 38.7402 23.5762 39.0098 23.3418C39.2793 23.1074 39.4844 22.9316 39.625 22.8145C39.7305 22.9199 39.8535 23.0547 39.9941 23.2188C40.1465 23.3828 40.2871 23.5352 40.416 23.6758C40.1582 23.9336 39.8359 24.25 39.4492 24.625C39.0625 24.9883 38.6406 25.3633 38.1836 25.75C37.7383 26.1367 37.2695 26.5234 36.7773 26.9102C36.2969 27.2969 35.8281 27.6426 35.3711 27.9473C34.9141 28.252 34.4863 28.498 34.0879 28.6855C33.6895 28.873 33.3496 28.9668 33.0684 28.9668ZM40.0293 12.373C40.0176 12.4199 39.9707 12.5371 39.8887 12.7246C39.8184 12.9004 39.7305 13.1113 39.625 13.3574C39.5195 13.5918 39.3965 13.8438 39.2559 14.1133C39.127 14.3711 38.998 14.6113 38.8691 14.834C38.7402 15.0566 38.6172 15.2441 38.5 15.3965C38.3828 15.5371 38.2891 15.6074 38.2188 15.6074C38.0078 15.5957 37.75 15.5312 37.4453 15.4141C37.1523 15.2969 36.8652 15.168 36.584 15.0273C36.3145 14.875 36.0801 14.7285 35.8809 14.5879C35.6934 14.4473 35.5996 14.3477 35.5996 14.2891C35.5996 14.043 35.6699 13.7266 35.8105 13.3398C35.9512 12.9414 36.1152 12.5605 36.3027 12.1973C36.4902 11.8223 36.6777 11.5 36.8652 11.2305C37.0645 10.9609 37.2168 10.8262 37.3223 10.8262C37.5332 10.8262 37.791 10.8965 38.0957 11.0371C38.4004 11.166 38.6934 11.3184 38.9746 11.4941C39.2676 11.6699 39.5137 11.8457 39.7129 12.0215C39.9238 12.1855 40.0293 12.3027 40.0293 12.373ZM43.1582 26.7695C43.3457 26.7695 43.5977 26.6875 43.9141 26.5234C44.2422 26.3594 44.5996 26.1543 44.9863 25.9082C45.373 25.6504 45.7773 25.3691 46.1992 25.0645C46.6211 24.7598 47.0137 24.4609 47.377 24.168C47.752 23.875 48.0859 23.6055 48.3789 23.3594C48.6719 23.1133 48.8887 22.9316 49.0293 22.8145C49.1348 22.9199 49.2578 23.0547 49.3984 23.2188C49.5508 23.3828 49.6914 23.5352 49.8203 23.6758C49.5625 23.9336 49.2402 24.25 48.8535 24.625C48.4668 24.9883 48.0449 25.3633 47.5879 25.75C47.1426 26.1367 46.6738 26.5234 46.1816 26.9102C45.7012 27.2969 45.2266 27.6426 44.7578 27.9473C44.3008 28.252 43.873 28.498 43.4746 28.6855C43.0762 28.873 42.7422 28.9668 42.4727 28.9668C42.1094 28.9668 41.7227 28.8379 41.3125 28.5801C40.9141 28.3223 40.5391 28.0234 40.1875 27.6836C39.8359 27.332 39.5371 26.9805 39.291 26.6289C39.0449 26.2773 38.9043 26.0137 38.8691 25.8379C38.8457 25.7676 38.834 25.6855 38.834 25.5918C38.834 25.4863 38.834 25.375 38.834 25.2578C38.834 24.6719 38.9102 23.9336 39.0625 23.043C39.2031 22.1406 39.3965 21.1914 39.6426 20.1953C39.8887 19.1875 40.1699 18.1914 40.4863 17.207C40.8145 16.2109 41.1543 15.332 41.5059 14.5703C42.2207 13.0117 42.9531 11.6289 43.7031 10.4219C44.4648 9.21484 45.209 8.16602 45.9355 7.27539C46.6621 6.37305 47.3594 5.61719 48.0273 5.00781C48.6953 4.39844 49.293 3.90625 49.8203 3.53125C50.3594 3.15625 50.8105 2.88672 51.1738 2.72266C51.5488 2.55859 51.8066 2.47656 51.9473 2.47656C52.1699 2.55859 52.3926 2.68164 52.6152 2.8457C52.8496 2.99805 53.0664 3.16211 53.2656 3.33789C53.4648 3.51367 53.6406 3.68945 53.793 3.86523C53.9453 4.0293 54.0566 4.15234 54.127 4.23438C54.2207 4.32812 54.2793 4.42188 54.3027 4.51562C54.3379 4.59766 54.3555 4.70898 54.3555 4.84961C54.3555 5.13086 54.2852 5.51758 54.1445 6.00977C54.0039 6.50195 53.7402 7.12891 53.3535 7.89062C52.9668 8.64063 52.4277 9.54297 51.7363 10.5977C51.0566 11.6523 50.166 12.8828 49.0645 14.2891C48.5488 14.9453 48.0039 15.6133 47.4297 16.293C46.9375 16.8789 46.3691 17.5176 45.7246 18.209C45.0801 18.9004 44.418 19.5625 43.7383 20.1953C43.3984 21.4844 43.1582 22.6211 43.0176 23.6055C42.8887 24.5898 42.8242 25.3574 42.8242 25.9082C42.8242 26.2715 42.8535 26.5059 42.9121 26.6113C42.9707 26.7168 43.0527 26.7695 43.1582 26.7695ZM45.9707 13.8848C45.7715 14.3301 45.584 14.7637 45.4082 15.1855C45.2441 15.6074 45.0859 16.0234 44.9336 16.4336C45.2969 16.0234 45.625 15.6309 45.918 15.2559C46.2227 14.8809 46.4805 14.5586 46.6914 14.2891C46.9375 13.9727 47.1602 13.6738 47.3594 13.3926C48.1797 12.2441 48.8887 11.1895 49.4863 10.2285C50.084 9.26758 50.5762 8.42383 50.9629 7.69727C51.3496 6.95898 51.6309 6.34961 51.8066 5.86914C51.9941 5.37695 52.0879 5.02539 52.0879 4.81445C52.0879 4.75586 52.082 4.71484 52.0703 4.69141C52.0703 4.65625 52.041 4.63867 51.9824 4.63867C51.877 4.63867 51.6367 4.81445 51.2617 5.16602C50.8867 5.50586 50.4238 6.05078 49.873 6.80078C49.334 7.55078 48.7246 8.51172 48.0449 9.68359C47.377 10.8438 46.6855 12.2441 45.9707 13.8848ZM50.1543 28.9668C49.9785 28.9668 49.7559 28.9023 49.4863 28.7734C49.2168 28.6562 48.959 28.5039 48.7129 28.3164C48.4668 28.1406 48.2559 27.9414 48.0801 27.7188C47.9043 27.4961 47.8164 27.2793 47.8164 27.0684C47.9336 26.5527 48.0918 25.9609 48.291 25.293C48.4902 24.625 48.707 23.9453 48.9414 23.2539C49.1641 22.5625 49.4043 21.8887 49.6621 21.2324C49.9082 20.5645 50.1309 19.9727 50.3301 19.457C50.541 18.9414 50.7227 18.5254 50.875 18.209C51.0273 17.8926 51.127 17.7344 51.1738 17.7344C51.2441 17.7344 51.4199 17.8105 51.7012 17.9629C51.9824 18.1152 52.2754 18.3027 52.5801 18.5254C52.8965 18.7363 53.1777 18.9648 53.4238 19.2109C53.6699 19.4453 53.793 19.6504 53.793 19.8262C53.793 19.8613 53.7871 19.9082 53.7754 19.9668C53.7637 20.0137 53.7461 20.0781 53.7227 20.1602C53.6289 20.4531 53.5059 20.7988 53.3535 21.1973C53.2129 21.5957 53.0605 22.0117 52.8965 22.4453C52.7324 22.8672 52.5684 23.2949 52.4043 23.7285C52.2402 24.1504 52.0938 24.5488 51.9648 24.9238C51.8359 25.2988 51.7305 25.627 51.6484 25.9082C51.5664 26.1895 51.5254 26.3945 51.5254 26.5234C51.5254 26.5938 51.5605 26.6289 51.6309 26.6289C51.7598 26.6289 51.9531 26.5527 52.2109 26.4004C52.4688 26.248 52.7617 26.0488 53.0898 25.8027C53.4297 25.5566 53.7812 25.2871 54.1445 24.9941C54.5078 24.7012 54.8535 24.4141 55.1816 24.1328C55.5215 23.8398 55.8262 23.5762 56.0957 23.3418C56.3652 23.1074 56.5703 22.9316 56.7109 22.8145C56.8164 22.9199 56.9395 23.0547 57.0801 23.2188C57.2324 23.3828 57.373 23.5352 57.502 23.6758C57.2441 23.9336 56.9219 24.25 56.5352 24.625C56.1484 24.9883 55.7266 25.3633 55.2695 25.75C54.8242 26.1367 54.3555 26.5234 53.8633 26.9102C53.3828 27.2969 52.9141 27.6426 52.457 27.9473C52 28.252 51.5723 28.498 51.1738 28.6855C50.7754 28.873 50.4355 28.9668 50.1543 28.9668ZM57.1152 12.373C57.1035 12.4199 57.0566 12.5371 56.9746 12.7246C56.9043 12.9004 56.8164 13.1113 56.7109 13.3574C56.6055 13.5918 56.4824 13.8438 56.3418 14.1133C56.2129 14.3711 56.084 14.6113 55.9551 14.834C55.8262 15.0566 55.7031 15.2441 55.5859 15.3965C55.4688 15.5371 55.375 15.6074 55.3047 15.6074C55.0938 15.5957 54.8359 15.5312 54.5312 15.4141C54.2383 15.2969 53.9512 15.168 53.6699 15.0273C53.4004 14.875 53.166 14.7285 52.9668 14.5879C52.7793 14.4473 52.6855 14.3477 52.6855 14.2891C52.6855 14.043 52.7559 13.7266 52.8965 13.3398C53.0371 12.9414 53.2012 12.5605 53.3887 12.1973C53.5762 11.8223 53.7637 11.5 53.9512 11.2305C54.1504 10.9609 54.3027 10.8262 54.4082 10.8262C54.6191 10.8262 54.877 10.8965 55.1816 11.0371C55.4863 11.166 55.7793 11.3184 56.0605 11.4941C56.3535 11.6699 56.5996 11.8457 56.7988 12.0215C57.0098 12.1855 57.1152 12.3027 57.1152 12.373ZM61.5098 19.5098C61.3691 19.8848 61.2285 20.2656 61.0879 20.6523C60.9473 21.0391 60.8066 21.4375 60.666 21.8477C61.4043 21.0039 62.0371 20.3184 62.5645 19.791C63.1035 19.252 63.5547 18.8301 63.918 18.5254C64.293 18.2207 64.5918 18.0156 64.8145 17.9102C65.0488 17.793 65.2305 17.7344 65.3594 17.7344C65.5117 17.7344 65.7402 17.8105 66.0449 17.9629C66.3496 18.1152 66.6543 18.3027 66.959 18.5254C67.2754 18.748 67.5449 18.9766 67.7676 19.2109C68.002 19.4453 68.1191 19.6504 68.1191 19.8262C68.1191 19.8613 68.1133 19.9082 68.1016 19.9668C68.0898 20.0137 68.0723 20.0781 68.0488 20.1602C67.9551 20.4531 67.832 20.7988 67.6797 21.1973C67.5391 21.5957 67.3867 22.0117 67.2227 22.4453C67.0586 22.8672 66.8945 23.2949 66.7305 23.7285C66.5664 24.1504 66.4199 24.5488 66.291 24.9238C66.1621 25.2988 66.0566 25.627 65.9746 25.9082C65.8926 26.1895 65.8516 26.3945 65.8516 26.5234C65.8516 26.5938 65.8867 26.6289 65.957 26.6289C66.0859 26.6289 66.2793 26.5527 66.5371 26.4004C66.7949 26.248 67.0879 26.0488 67.416 25.8027C67.7559 25.5566 68.1074 25.2871 68.4707 24.9941C68.834 24.7012 69.1797 24.4141 69.5078 24.1328C69.8477 23.8398 70.1523 23.5762 70.4219 23.3418C70.6914 23.1074 70.8965 22.9316 71.0371 22.8145C71.1543 22.9199 71.2832 23.0547 71.4238 23.2188C71.5645 23.3828 71.6992 23.5352 71.8281 23.6758C71.5703 23.9336 71.248 24.25 70.8613 24.625C70.4746 24.9883 70.0527 25.3633 69.5957 25.75C69.1504 26.1367 68.6816 26.5234 68.1895 26.9102C67.709 27.2969 67.2402 27.6426 66.7832 27.9473C66.3262 28.252 65.8984 28.498 65.5 28.6855C65.1016 28.873 64.7676 28.9668 64.498 28.9668C64.3223 28.9668 64.0996 28.9023 63.8301 28.7734C63.5605 28.6562 63.2969 28.5039 63.0391 28.3164C62.793 28.1406 62.582 27.9414 62.4062 27.7188C62.2305 27.4961 62.1426 27.2793 62.1426 27.0684C62.248 26.5879 62.3887 26.043 62.5645 25.4336C62.752 24.8242 62.9512 24.2031 63.1621 23.5703C63.373 22.9258 63.5898 22.293 63.8125 21.6719C64.0469 21.0391 64.2695 20.459 64.4805 19.9316L64.4453 19.9668C64.2227 20.2363 63.9004 20.5938 63.4785 21.0391C63.0684 21.4727 62.5996 22.0352 62.0723 22.7266C61.5449 23.4062 60.9883 24.2324 60.4023 25.2051C59.8164 26.166 59.2422 27.3086 58.6797 28.6328C58.6094 28.7969 58.5449 28.9258 58.4863 29.0195C58.4277 29.1133 58.3164 29.1602 58.1523 29.1602C57.9531 29.1602 57.7246 29.1016 57.4668 28.9844C57.2207 28.8789 56.9688 28.7324 56.7109 28.5449C56.4414 28.3691 56.1777 28.1699 55.9199 27.9473C55.6504 27.7246 55.4102 27.502 55.1992 27.2793C55.1992 27.209 55.2344 27.0098 55.3047 26.6816C55.3633 26.3535 55.4512 25.9434 55.5684 25.4512C55.6855 24.9473 55.832 24.3789 56.0078 23.7461C56.1836 23.1016 56.3828 22.4277 56.6055 21.7246C56.8281 21.0215 57.0742 20.3066 57.3438 19.5801C57.6016 18.8418 57.8828 18.1328 58.1875 17.4531C58.6797 17.6875 59.2246 17.9746 59.8223 18.3145C60.4316 18.6543 60.9941 19.0527 61.5098 19.5098ZM80.916 26.4531C80.916 26.5234 80.9512 26.5586 81.0215 26.5586C81.127 26.5586 81.3027 26.4824 81.5488 26.3301C81.7949 26.1777 82.0762 25.9844 82.3926 25.75C82.709 25.5156 83.043 25.252 83.3945 24.959C83.7578 24.666 84.1035 24.3789 84.4316 24.0977C84.7598 23.8164 85.0527 23.5586 85.3105 23.3242C85.5801 23.0898 85.7852 22.9082 85.9258 22.7793C86.0312 22.8848 86.1602 23.0254 86.3125 23.2012C86.4766 23.377 86.623 23.5352 86.752 23.6758C86.4707 23.9336 86.1309 24.25 85.7324 24.625C85.3457 24.9883 84.9238 25.3691 84.4668 25.7676C84.0215 26.166 83.5586 26.5645 83.0781 26.9629C82.5977 27.3496 82.1289 27.6953 81.6719 28C81.2148 28.3047 80.7812 28.5508 80.3711 28.7383C79.9609 28.9375 79.6035 29.0371 79.2988 29.0371C79.0879 29.0371 78.8535 28.9961 78.5957 28.9141C78.3496 28.832 78.1211 28.7148 77.9102 28.5625C77.6992 28.4219 77.5234 28.252 77.3828 28.0527C77.2422 27.8535 77.1719 27.6309 77.1719 27.3848C77.1719 27.291 77.166 27.1797 77.1543 27.0508C77.1543 26.9102 77.166 26.7344 77.1895 26.5234C77.2129 26.3008 77.2598 26.0371 77.3301 25.7324C77.4004 25.416 77.5059 25.0293 77.6465 24.5723C77.2598 24.9824 76.8027 25.4102 76.2754 25.8555C75.7598 26.3008 75.2148 26.7227 74.6406 27.1211C74.0664 27.5195 73.4863 27.877 72.9004 28.1934C72.3262 28.5215 71.793 28.7676 71.3008 28.9316C71.2422 28.9551 71.1953 28.9668 71.1602 28.9668C71.125 28.9668 71.0898 28.9668 71.0547 28.9668C70.9375 28.9668 70.7852 28.9082 70.5977 28.791C70.3984 28.6738 70.2051 28.5156 70.0176 28.3164C69.8301 28.1289 69.6719 27.9121 69.543 27.666C69.4023 27.4199 69.332 27.1738 69.332 26.9277C69.332 26.8574 69.3672 26.623 69.4375 26.2246C69.5078 25.8262 69.6777 25.3223 69.9473 24.7129C70.2051 24.0918 70.5918 23.4004 71.1074 22.6387C71.623 21.8652 72.3262 21.0742 73.2168 20.2656C73.6738 19.8555 74.166 19.4688 74.6934 19.1055C75.1387 18.8008 75.6484 18.4902 76.2227 18.1738C76.7969 17.8574 77.4004 17.6055 78.0332 17.418C78.0566 17.418 78.0742 17.4121 78.0859 17.4004C78.1094 17.3887 78.1387 17.3945 78.1738 17.418C78.3145 17.4648 78.4785 17.541 78.666 17.6465C78.8652 17.7402 79.0586 17.8457 79.2461 17.9629C79.4453 18.0684 79.6152 18.1797 79.7559 18.2969C79.9082 18.4023 80.0078 18.4902 80.0547 18.5605C80.0664 18.584 80.0664 18.6016 80.0547 18.6133L80.0195 18.6484C79.4922 18.9297 78.9941 19.2461 78.5254 19.5977C78.0566 19.9375 77.6406 20.2598 77.2773 20.5645C76.8555 20.9277 76.4629 21.2852 76.0996 21.6367C75.2441 22.4805 74.6523 23.2129 74.3242 23.834C73.9961 24.4434 73.832 24.8828 73.832 25.1523C73.832 25.3516 73.9141 25.4512 74.0781 25.4512C74.2422 25.4512 74.4473 25.3867 74.6934 25.2578C74.9512 25.1172 75.2383 24.9355 75.5547 24.7129C75.8711 24.4785 76.2168 24.209 76.5918 23.9043C76.9785 23.5879 77.377 23.2598 77.7871 22.9199C78.1504 22.627 78.502 22.3105 78.8418 21.9707C79.1348 21.6895 79.4395 21.3672 79.7559 21.0039C80.0723 20.6406 80.3418 20.2715 80.5645 19.8965C80.5645 19.8848 80.5703 19.873 80.582 19.8613C80.5938 19.8496 80.6113 19.8496 80.6348 19.8613C80.7637 19.9551 80.9102 20.1133 81.0742 20.3359C81.2383 20.5469 81.3906 20.7812 81.5312 21.0391C81.6719 21.2969 81.7891 21.5488 81.8828 21.7949C81.9883 22.0293 82.041 22.2109 82.041 22.3398C81.7715 22.8906 81.5605 23.3945 81.4082 23.8516C81.2676 24.2969 81.1562 24.6895 81.0742 25.0293C81.0039 25.3691 80.957 25.6621 80.9336 25.9082C80.9219 26.1426 80.916 26.3242 80.916 26.4531Z" fill="white"/>
</svg>
