<svg width="224" height="126" viewBox="0 0 224 126" fill="none" xmlns="http://www.w3.org/2000/svg">
<path d="M116.34 106.66C116.34 107.811 115.883 108.915 115.069 109.729C114.255 110.543 113.151 111 112 111C110.849 111 109.745 110.543 108.931 109.729C108.117 108.915 107.66 107.811 107.66 106.66H116.34Z" fill="#434A54"/>
<path d="M133.72 71.8802C133.65 71.9902 133.56 72.1002 133.49 72.2002C131.926 74.3611 130.557 76.6568 129.4 79.0602C128.102 81.7204 127.096 84.5134 126.4 87.3902C126.25 87.9502 126.14 88.5202 126.02 89.0902C125.9 89.6599 125.586 90.1704 125.132 90.535C124.678 90.8996 124.112 91.0958 123.53 91.0902H100.53C99.9479 91.0958 99.3817 90.8996 98.9278 90.535C98.4738 90.1704 98.1602 89.6599 98.04 89.0902C96.9192 82.9972 94.3694 77.2568 90.6 72.3402C86.9716 67.6238 85.003 61.8408 85 55.8902C84.9831 51.1423 86.2401 46.4769 88.64 42.3802C90.5688 39.0388 93.1912 36.1495 96.3307 33.907C99.4701 31.6646 103.054 30.1209 106.84 29.3802C108.704 29.0155 110.602 28.8578 112.5 28.9102H113.62C118.467 29.2041 123.146 30.8 127.162 33.5297C131.179 36.2594 134.385 40.0218 136.442 44.4207C138.5 48.8195 139.333 53.6919 138.854 58.5245C138.375 63.3571 136.601 67.971 133.72 71.8802Z" fill="#0D6EFD"/>
<path d="M123.87 91.0898V102.09C123.87 103.291 123.393 104.443 122.543 105.293C121.694 106.143 120.541 106.62 119.34 106.62H104.66C103.459 106.62 102.306 106.143 101.457 105.293C100.607 104.443 100.13 103.291 100.13 102.09V91.0898H123.87Z" fill="#656D78"/>
<path d="M112 112C110.586 111.997 109.23 111.433 108.231 110.432C107.231 109.431 106.67 108.074 106.67 106.66C106.67 106.395 106.775 106.14 106.963 105.953C107.15 105.765 107.405 105.66 107.67 105.66H116.34C116.605 105.66 116.86 105.765 117.047 105.953C117.235 106.14 117.34 106.395 117.34 106.66C117.337 108.075 116.774 109.432 115.773 110.433C114.772 111.434 113.415 111.997 112 112ZM108.82 107.66C109.031 108.338 109.453 108.932 110.025 109.353C110.598 109.774 111.289 110.002 112 110.002C112.711 110.002 113.402 109.774 113.975 109.353C114.547 108.932 114.969 108.338 115.18 107.66H108.82ZM123.53 92.0898H100.53C99.7 92.1073 98.8906 91.8309 98.2446 91.3094C97.5987 90.7879 97.1579 90.0548 97 89.2398C95.9023 83.3048 93.4182 77.7129 89.75 72.9198C86.8535 69.1344 84.9712 64.6721 84.2816 59.9558C83.5919 55.2394 84.1177 50.4251 85.8091 45.9687C87.5005 41.5124 90.3015 37.5616 93.9469 34.4906C97.5922 31.4196 101.961 29.33 106.64 28.4198C108.576 28.0406 110.548 27.8762 112.52 27.9298H113.64C118.669 28.2283 123.524 29.8781 127.694 32.7052C131.864 35.5322 135.193 39.4319 137.332 43.9931C139.471 48.5543 140.339 53.608 139.846 58.6216C139.353 63.6351 137.517 68.4228 134.53 72.4798L134.3 72.7898C132.769 74.8988 131.43 77.1412 130.3 79.4898C129.032 82.0858 128.05 84.8118 127.37 87.6198C127.23 88.1698 127.12 88.7098 127.01 89.2398C126.85 90.0445 126.416 90.7687 125.781 91.2886C125.146 91.8084 124.35 92.0916 123.53 92.0898ZM111.81 29.9198C106.982 29.9631 102.262 31.3497 98.1776 33.9244C94.0934 36.4991 90.8068 40.1602 88.6859 44.4974C86.5651 48.8346 85.6938 53.6767 86.1696 58.4812C86.6454 63.2857 88.4496 67.8628 91.38 71.6998C95.2307 76.7505 97.8408 82.6353 99 88.8798C99.0699 89.2247 99.258 89.5343 99.5319 89.7552C99.8058 89.9761 100.148 90.0945 100.5 90.0898H123.5C123.85 90.093 124.19 89.9754 124.464 89.7568C124.737 89.5382 124.926 89.2319 125 88.8898C125.13 88.2698 125.25 87.6998 125.39 87.1398C126.105 84.1979 127.134 81.3414 128.46 78.6198C129.645 76.1681 131.044 73.8257 132.64 71.6198L132.87 71.2998C135.358 67.9159 136.989 63.9796 137.624 59.8278C138.259 55.6759 137.878 51.432 136.515 47.4593C135.152 43.4865 132.847 39.9032 129.796 37.0158C126.746 34.1285 123.042 32.0231 119 30.8798C117.234 30.3921 115.42 30.0971 113.59 29.9998H112.53L111.81 29.9198Z" fill="white"/>
<path d="M119.34 107.66H104.66C103.194 107.657 101.789 107.074 100.753 106.037C99.7161 105.001 99.1326 103.596 99.13 102.13V91.13C99.13 90.8648 99.2354 90.6104 99.4229 90.4229C99.6104 90.2354 99.8648 90.13 100.13 90.13H123.87C124.135 90.13 124.39 90.2354 124.577 90.4229C124.765 90.6104 124.87 90.8648 124.87 91.13V102.13C124.867 103.596 124.284 105.001 123.247 106.037C122.211 107.074 120.806 107.657 119.34 107.66ZM101.13 92.09V102.09C101.133 103.025 101.505 103.922 102.167 104.583C102.828 105.245 103.725 105.617 104.66 105.62H119.34C120.276 105.62 121.174 105.248 121.836 104.586C122.498 103.924 122.87 103.026 122.87 102.09V92.09H101.13ZM112 25.09C111.735 25.09 111.48 24.9846 111.293 24.7971C111.105 24.6096 111 24.3552 111 24.09V15C111 14.7348 111.105 14.4804 111.293 14.2929C111.48 14.1054 111.735 14 112 14C112.265 14 112.52 14.1054 112.707 14.2929C112.895 14.4804 113 14.7348 113 15V24.09C113 24.3552 112.895 24.6096 112.707 24.7971C112.52 24.9846 112.265 25.09 112 25.09ZM129 29.63C128.825 29.6312 128.652 29.5864 128.5 29.5C128.385 29.4347 128.285 29.3473 128.204 29.243C128.124 29.1386 128.064 29.0193 128.03 28.892C127.995 28.7647 127.987 28.6318 128.004 28.501C128.021 28.3702 128.064 28.2441 128.13 28.13L132.67 20.26C132.736 20.1458 132.823 20.0456 132.928 19.9651C133.032 19.8847 133.151 19.8256 133.278 19.7913C133.406 19.7569 133.538 19.7479 133.669 19.7649C133.8 19.7818 133.926 19.8243 134.04 19.89C134.154 19.9557 134.254 20.0432 134.335 20.1476C134.415 20.252 134.474 20.3712 134.509 20.4984C134.543 20.6256 134.552 20.7583 134.535 20.889C134.518 21.0197 134.476 21.1458 134.41 21.26L129.86 29.13C129.773 29.2811 129.647 29.4068 129.497 29.4945C129.346 29.5822 129.175 29.6289 129 29.63ZM141.37 42.05C141.149 42.0515 140.933 41.9796 140.757 41.8453C140.581 41.7111 140.454 41.5222 140.397 41.3083C140.34 41.0944 140.355 40.8676 140.441 40.6634C140.526 40.4592 140.677 40.2892 140.87 40.18L148.75 35.64C148.978 35.5088 149.249 35.473 149.504 35.5404C149.759 35.6078 149.976 35.773 150.11 36C150.177 36.1135 150.22 36.2391 150.238 36.3695C150.256 36.4998 150.248 36.6325 150.214 36.7597C150.181 36.887 150.123 37.0064 150.043 37.1111C149.963 37.2159 149.864 37.3038 149.75 37.37L141.87 41.91C141.719 41.9999 141.546 42.0482 141.37 42.05ZM155 59H145.92C145.655 59 145.4 58.8946 145.213 58.7071C145.025 58.5196 144.92 58.2652 144.92 58C144.92 57.7348 145.025 57.4804 145.213 57.2929C145.4 57.1054 145.655 57 145.92 57H155C155.265 57 155.52 57.1054 155.707 57.2929C155.895 57.4804 156 57.7348 156 58C156 58.2652 155.895 58.5196 155.707 58.7071C155.52 58.8946 155.265 59 155 59ZM149.25 80.51C149.075 80.5112 148.902 80.4664 148.75 80.38L140.88 75.83C140.76 75.7675 140.655 75.6814 140.569 75.577C140.484 75.4727 140.421 75.3521 140.383 75.2225C140.346 75.093 140.335 74.9572 140.351 74.8233C140.367 74.6894 140.41 74.5602 140.478 74.4435C140.545 74.3267 140.636 74.2248 140.744 74.1439C140.851 74.063 140.975 74.0047 141.106 73.9726C141.237 73.9405 141.373 73.9353 141.506 73.9572C141.639 73.9791 141.766 74.0276 141.88 74.1L149.75 78.64C149.943 78.7492 150.094 78.9192 150.179 79.1234C150.265 79.3276 150.28 79.5544 150.223 79.7683C150.166 79.9822 150.039 80.1711 149.863 80.3053C149.687 80.4396 149.471 80.5116 149.25 80.51ZM95 29.63C94.8255 29.6289 94.6543 29.5822 94.5034 29.4945C94.3525 29.4068 94.2273 29.2811 94.14 29.13L89.59 21.26C89.5243 21.1458 89.4818 21.0197 89.4649 20.889C89.4479 20.7583 89.4569 20.6256 89.4913 20.4984C89.5256 20.3712 89.5847 20.252 89.6651 20.1476C89.7456 20.0432 89.8457 19.9557 89.96 19.89C90.0742 19.8243 90.2003 19.7818 90.331 19.7649C90.4617 19.7479 90.5944 19.7569 90.7216 19.7913C90.8488 19.8256 90.968 19.8847 91.0724 19.9651C91.1768 20.0456 91.2643 20.1458 91.33 20.26L95.87 28.13C95.9361 28.2441 95.979 28.3702 95.9962 28.501C96.0134 28.6318 96.0045 28.7647 95.9701 28.892C95.9357 29.0193 95.8765 29.1386 95.7958 29.243C95.7151 29.3473 95.6146 29.4347 95.5 29.5C95.3476 29.5864 95.1752 29.6312 95 29.63ZM82.63 42.05C82.4539 42.0482 82.2814 41.9999 82.13 41.91L74.25 37.37C74.1362 37.3038 74.0367 37.2159 73.957 37.1111C73.8773 37.0064 73.8191 36.887 73.7856 36.7597C73.7522 36.6325 73.7442 36.4998 73.7621 36.3695C73.78 36.2391 73.8235 36.1135 73.89 36C74.0236 35.773 74.2413 35.6078 74.496 35.5404C74.7506 35.473 75.0216 35.5088 75.25 35.64L83.13 40.18C83.3226 40.2892 83.4736 40.4592 83.5592 40.6634C83.6448 40.8676 83.6602 41.0944 83.6031 41.3083C83.5459 41.5222 83.4193 41.7111 83.2432 41.8453C83.0671 41.9796 82.8514 42.0515 82.63 42.05ZM78.08 59H69C68.7348 59 68.4804 58.8946 68.2929 58.7071C68.1054 58.5196 68 58.2652 68 58C68 57.7348 68.1054 57.4804 68.2929 57.2929C68.4804 57.1054 68.7348 57 69 57H78.09C78.3552 57 78.6096 57.1054 78.7971 57.2929C78.9846 57.4804 79.09 57.7348 79.09 58C79.09 58.2652 78.9846 58.5196 78.7971 58.7071C78.6096 58.8946 78.3552 59 78.09 59H78.08ZM74.75 80.51C74.5286 80.5116 74.3129 80.4396 74.1368 80.3053C73.9607 80.1711 73.8341 79.9822 73.7769 79.7683C73.7198 79.5544 73.7352 79.3276 73.8208 79.1234C73.9064 78.9192 74.0574 78.7492 74.25 78.64L82.12 74.1C82.2338 74.0276 82.3611 73.9791 82.4942 73.9572C82.6273 73.9353 82.7634 73.9405 82.8944 73.9726C83.0254 74.0047 83.1485 74.063 83.2564 74.1439C83.3643 74.2248 83.4547 74.3267 83.5222 74.4435C83.5897 74.5602 83.6329 74.6894 83.6492 74.8233C83.6654 74.9572 83.6545 75.093 83.6169 75.2225C83.5793 75.3521 83.5159 75.4727 83.4305 75.577C83.3451 75.6814 83.2395 75.7675 83.12 75.83L75.25 80.38C75.0976 80.4664 74.9252 80.5112 74.75 80.51Z" fill="white"/>
<path d="M123.87 97.4196H100.13C99.8648 97.4196 99.6104 97.3142 99.4229 97.1267C99.2354 96.9392 99.13 96.6848 99.13 96.4196C99.13 96.1544 99.2354 95.9 99.4229 95.7125C99.6104 95.5249 99.8648 95.4196 100.13 95.4196H123.87C124.135 95.4196 124.39 95.5249 124.577 95.7125C124.765 95.9 124.87 96.1544 124.87 96.4196C124.87 96.6848 124.765 96.9392 124.577 97.1267C124.39 97.3142 124.135 97.4196 123.87 97.4196ZM123.87 102.33H100.13C99.8648 102.33 99.6104 102.224 99.4229 102.037C99.2354 101.849 99.13 101.595 99.13 101.33C99.13 101.064 99.2354 100.81 99.4229 100.622C99.6104 100.435 99.8648 100.33 100.13 100.33H123.87C124.135 100.33 124.39 100.435 124.577 100.622C124.765 100.81 124.87 101.064 124.87 101.33C124.87 101.595 124.765 101.849 124.577 102.037C124.39 102.224 124.135 102.33 123.87 102.33ZM160 112H159.25C158.985 112 158.73 111.894 158.543 111.707C158.355 111.519 158.25 111.265 158.25 111C158.25 110.734 158.355 110.48 158.543 110.292C158.73 110.105 158.985 110 159.25 110H160C160.265 110 160.52 110.105 160.707 110.292C160.895 110.48 161 110.734 161 111C161 111.265 160.895 111.519 160.707 111.707C160.52 111.894 160.265 112 160 112ZM156.06 112H67.94C67.6748 112 67.4204 111.894 67.2329 111.707C67.0454 111.519 66.94 111.265 66.94 111C66.94 110.734 67.0454 110.48 67.2329 110.292C67.4204 110.105 67.6748 110 67.94 110H156.06C156.325 110 156.58 110.105 156.767 110.292C156.955 110.48 157.06 110.734 157.06 111C157.06 111.265 156.955 111.519 156.767 111.707C156.58 111.894 156.325 112 156.06 112ZM64.75 112H64C63.7348 112 63.4804 111.894 63.2929 111.707C63.1054 111.519 63 111.265 63 111C63 110.734 63.1054 110.48 63.2929 110.292C63.4804 110.105 63.7348 110 64 110H64.75C65.0152 110 65.2696 110.105 65.4571 110.292C65.6446 110.48 65.75 110.734 65.75 111C65.75 111.265 65.6446 111.519 65.4571 111.707C65.2696 111.894 65.0152 112 64.75 112ZM100.32 68.0996C99.3651 67.6657 98.551 66.9728 97.97 66.0996C97.335 65.1261 97.0139 63.9813 97.05 62.8196V54.1996C97.0458 53.9352 97.1465 53.6799 97.33 53.4896C97.5163 53.3049 97.7677 53.2007 98.03 53.1996C98.1616 53.1988 98.2921 53.2241 98.4139 53.2738C98.5357 53.3236 98.6466 53.3969 98.74 53.4896C98.8345 53.5822 98.9097 53.6927 98.9612 53.8145C99.0127 53.9364 99.0395 54.0673 99.04 54.1996V62.8796C99.0164 63.6658 99.2251 64.4414 99.64 65.1096C100.023 65.7094 100.572 66.1853 101.22 66.4796C101.875 66.7812 102.588 66.9374 103.31 66.9374C104.032 66.9374 104.745 66.7812 105.4 66.4796C106.054 66.1871 106.61 65.7113 107 65.1096C107.415 64.4414 107.624 63.6658 107.6 62.8796V54.1996C107.596 53.9352 107.696 53.6799 107.88 53.4896C108.066 53.3049 108.318 53.2007 108.58 53.1996C108.845 53.1996 109.1 53.305 109.287 53.4925C109.475 53.68 109.58 53.9344 109.58 54.1996V62.8196C109.621 63.9263 109.331 65.0201 108.747 65.9608C108.162 66.9015 107.31 67.6462 106.3 68.0996C105.359 68.531 104.335 68.7544 103.3 68.7544C102.265 68.7544 101.241 68.531 100.3 68.0996H100.32ZM112.81 68.3696C112.724 68.2865 112.656 68.187 112.61 68.077C112.564 67.9671 112.54 67.8489 112.54 67.7296C112.535 67.511 112.602 67.2967 112.73 67.1196L117.73 60.9196L112.73 54.7696C112.598 54.5938 112.528 54.3794 112.53 54.1596C112.525 54.0322 112.547 53.9052 112.593 53.7865C112.64 53.6678 112.71 53.56 112.8 53.4696C112.987 53.2946 113.234 53.1979 113.49 53.1996C113.65 53.2015 113.807 53.2391 113.95 53.3096C114.085 53.3774 114.204 53.4728 114.3 53.5896L119 59.4396L123.6 53.5496C123.68 53.4346 123.788 53.342 123.914 53.2808C124.04 53.2195 124.18 53.1915 124.32 53.1996C124.573 53.2005 124.816 53.2969 125 53.4696C125.091 53.5553 125.163 53.6593 125.211 53.7747C125.26 53.8902 125.283 54.0145 125.28 54.1396C125.28 54.3328 125.221 54.5213 125.11 54.6796L120 60.8996L125 67.0896C125.131 67.2497 125.199 67.4527 125.19 67.6596C125.194 67.9191 125.097 68.1701 124.92 68.3596C124.817 68.4567 124.695 68.531 124.562 68.5775C124.428 68.624 124.287 68.6417 124.146 68.6294C124.005 68.6172 123.868 68.5752 123.745 68.5062C123.622 68.4373 123.514 68.343 123.43 68.2296L118.76 62.3596L114.16 68.2496C114.069 68.368 113.952 68.4645 113.819 68.5319C113.686 68.5994 113.539 68.6362 113.39 68.6396C113.17 68.6246 112.963 68.5284 112.81 68.3696Z" fill="white"/>
<path d="M125.85 67.6601C125.854 67.8651 125.817 68.0689 125.742 68.2595C125.666 68.4501 125.553 68.6237 125.41 68.7701C125.263 68.9237 125.086 69.0449 124.89 69.1259C124.693 69.2068 124.482 69.2458 124.27 69.2401C124.021 69.2411 123.775 69.1816 123.554 69.0666C123.332 68.9516 123.142 68.7847 123 68.5801L118.82 63.3301L114.69 68.6201C114.545 68.812 114.358 68.9679 114.143 69.0754C113.928 69.183 113.69 69.2393 113.45 69.2401C113.052 69.2324 112.672 69.0709 112.391 68.7893C112.109 68.5078 111.948 68.1282 111.94 67.7301C111.925 67.371 112.035 67.0178 112.25 66.7301L117 60.9201L112.31 55.1501C112.093 54.8621 111.977 54.5106 111.98 54.1501C111.978 53.9445 112.016 53.7404 112.093 53.5499C112.171 53.3593 112.285 53.186 112.43 53.0401C112.668 52.8082 112.972 52.6565 113.3 52.6063C113.628 52.5561 113.964 52.6099 114.26 52.7601C114.482 52.8682 114.677 53.0255 114.83 53.2201L119 58.4601L123.13 53.1801C123.264 52.9914 123.443 52.8394 123.651 52.7381C123.859 52.6367 124.089 52.5893 124.32 52.6001C124.522 52.598 124.722 52.6357 124.909 52.7112C125.096 52.7868 125.266 52.8985 125.41 53.0401C125.561 53.1807 125.68 53.3511 125.761 53.5405C125.842 53.7299 125.882 53.9341 125.88 54.1401C125.881 54.4632 125.779 54.7782 125.59 55.0401L120.79 60.9001L125.52 66.7101C125.742 66.9759 125.86 67.3138 125.85 67.6601ZM109.7 53.0701C109.85 53.217 109.97 53.3929 110.05 53.5871C110.131 53.7813 110.172 53.9898 110.17 54.2001V62.8201C110.216 64.0407 109.896 65.2472 109.251 66.2844C108.606 67.3216 107.665 68.142 106.55 68.6401C105.534 69.1077 104.429 69.3499 103.31 69.3499C102.191 69.3499 101.086 69.1077 100.07 68.6401C98.9547 68.142 98.0139 67.3216 97.3688 66.2844C96.7237 65.2472 96.4037 64.0407 96.45 62.8201V54.2001C96.45 53.9913 96.4911 53.7845 96.571 53.5916C96.6509 53.3987 96.768 53.2234 96.9157 53.0758C97.0633 52.9282 97.2386 52.811 97.4315 52.7311C97.6244 52.6512 97.8312 52.6101 98.04 52.6101C98.2488 52.6101 98.4555 52.6512 98.6484 52.7311C98.8413 52.811 99.0166 52.9282 99.1643 53.0758C99.3119 53.2234 99.429 53.3987 99.5089 53.5916C99.5888 53.7845 99.63 53.9913 99.63 54.2001V62.8801C99.6072 63.5501 99.7848 64.2116 100.14 64.7801C100.462 65.2871 100.924 65.69 101.47 65.9401C102.048 66.2019 102.675 66.3373 103.31 66.3373C103.945 66.3373 104.572 66.2019 105.15 65.9401C105.696 65.69 106.158 65.2871 106.48 64.7801C106.835 64.2116 107.013 63.5501 106.99 62.8801V54.2001C106.987 53.9929 107.025 53.7871 107.102 53.5948C107.18 53.4025 107.294 53.2275 107.44 53.0801C107.739 52.7796 108.144 52.6097 108.568 52.6078C108.992 52.606 109.399 52.7722 109.7 53.0701ZM133.92 55.4301C133.665 55.4306 133.419 55.3335 133.233 55.1587C133.047 54.984 132.935 54.7448 132.92 54.4901C132.695 51.2708 131.734 48.1461 130.111 45.3566C128.488 42.5671 126.247 40.1872 123.56 38.4001C123.449 38.3274 123.353 38.2333 123.278 38.1232C123.204 38.0131 123.152 37.8892 123.126 37.7589C123.1 37.6285 123.1 37.4943 123.127 37.364C123.153 37.2337 123.205 37.11 123.28 37.0001C123.427 36.7809 123.654 36.6285 123.912 36.576C124.171 36.5236 124.439 36.5754 124.66 36.7201C127.609 38.6761 130.068 41.2845 131.847 44.3434C133.627 47.4023 134.678 50.8297 134.92 54.3601C134.939 54.6239 134.853 54.8845 134.681 55.0851C134.508 55.2856 134.264 55.4096 134 55.4301H133.92ZM121.16 36.9201C121.015 36.9191 120.872 36.8884 120.74 36.8301C119.742 36.3689 118.709 35.9877 117.65 35.6901C117.523 35.654 117.405 35.5933 117.302 35.5114C117.198 35.4295 117.112 35.3281 117.048 35.213C116.984 35.0979 116.943 34.9712 116.928 34.8403C116.913 34.7094 116.924 34.5768 116.96 34.4501C116.996 34.3234 117.057 34.205 117.139 34.1017C117.221 33.9985 117.322 33.9124 117.437 33.8483C117.67 33.7189 117.944 33.6872 118.2 33.7601C119.356 34.0882 120.486 34.5027 121.58 35.0001C121.7 35.055 121.807 35.133 121.897 35.2297C121.986 35.3263 122.056 35.4397 122.101 35.5633C122.147 35.6869 122.167 35.8182 122.162 35.9498C122.157 36.0814 122.125 36.2106 122.07 36.3301C121.991 36.5056 121.863 36.6545 121.702 36.7592C121.54 36.8638 121.352 36.9197 121.16 36.9201Z" fill="white"/>
</svg>
